<svg width="172" height="258" viewBox="0 0 172 258" fill="none" xmlns="http://www.w3.org/2000/svg">
<path d="M85.5078 257.434C132.732 257.434 171.015 255.798 171.015 253.781C171.015 251.763 132.732 250.128 85.5078 250.128C38.2836 250.128 0.000793457 251.763 0.000793457 253.781C0.000793457 255.798 38.2836 257.434 85.5078 257.434Z" fill="#D8DFEA"/>
<path d="M100.347 243.509L123.086 207.493C123.727 206.478 124.942 205.982 126.11 206.259L167.554 216.088C169.777 216.615 171.667 214.409 170.804 212.293L135.624 126.067L60.1898 156.843L95.3698 243.069C96.2328 245.187 99.1268 245.442 100.347 243.509Z" fill="url(#paint0_linear_5_5)"/>
<path d="M110.826 156.843L106.729 166.885L91.5808 204.012L90.9548 205.542L85.5078 218.899L75.6448 243.069C74.7818 245.184 71.8898 245.439 70.6668 243.509L47.9278 207.494C47.2908 206.48 46.0738 205.982 44.9028 206.26L3.45878 216.088C1.23978 216.615 -0.650216 214.408 0.213784 212.292L35.3938 126.065L110.826 156.843Z" fill="url(#paint1_linear_5_5)"/>
<path d="M85.5078 166.888C131.593 166.888 168.952 129.529 168.952 83.444C168.952 37.3591 131.593 0 85.5078 0C39.4229 0 2.06378 37.3591 2.06378 83.444C2.06378 129.529 39.4229 166.888 85.5078 166.888Z" fill="url(#paint2_linear_5_5)"/>
<path d="M85.5078 159.468C127.495 159.468 161.532 125.431 161.532 83.444C161.532 41.4571 127.495 7.42 85.5078 7.42C43.5209 7.42 9.4838 41.4571 9.4838 83.444C9.4838 125.431 43.5209 159.468 85.5078 159.468Z" fill="url(#paint3_linear_5_5)"/>
<path d="M85.5078 154.815C124.925 154.815 156.879 122.861 156.879 83.444C156.879 44.0269 124.925 12.073 85.5078 12.073C46.0907 12.073 14.1368 44.0269 14.1368 83.444C14.1368 122.861 46.0907 154.815 85.5078 154.815Z" fill="url(#paint4_linear_5_5)"/>
<mask id="mask0_5_5" style="mask-type:alpha" maskUnits="userSpaceOnUse" x="51" y="40" width="70" height="88">
<path d="M51 41H121" stroke="black" stroke-width="1.8"/>
<path d="M51 43.3093H121" stroke="black" stroke-width="1.8"/>
<path d="M51 45.6186H121" stroke="black" stroke-width="1.8"/>
<path d="M51 47.9279H121" stroke="black" stroke-width="1.8"/>
<path d="M51 50.2372H121" stroke="black" stroke-width="1.8"/>
<path d="M51 52.5465H121" stroke="black" stroke-width="1.8"/>
<path d="M51 54.8559H121" stroke="black" stroke-width="1.8"/>
<path d="M51 57.1652H121" stroke="black" stroke-width="1.8"/>
<path d="M51 59.4745H121" stroke="black" stroke-width="1.8"/>
<path d="M51 61.7838H121" stroke="black" stroke-width="1.8"/>
<path d="M51 64.0931H121" stroke="black" stroke-width="1.8"/>
<path d="M51 66.4024H121" stroke="black" stroke-width="1.8"/>
<path d="M51 68.7117H121" stroke="black" stroke-width="1.8"/>
<path d="M51 71.021H121" stroke="black" stroke-width="1.8"/>
<path d="M51 73.3303H121" stroke="black" stroke-width="1.8"/>
<path d="M51 75.6397H121" stroke="black" stroke-width="1.8"/>
<path d="M51 77.949H121" stroke="black" stroke-width="1.8"/>
<path d="M51 80.2583H121" stroke="black" stroke-width="1.8"/>
<path d="M51 82.5676H121" stroke="black" stroke-width="1.8"/>
<path d="M51 84.8769H121" stroke="black" stroke-width="1.8"/>
<path d="M51 87.1862H121" stroke="black" stroke-width="1.8"/>
<path d="M51 89.4955H121" stroke="black" stroke-width="1.8"/>
<path d="M51 91.8048H121" stroke="black" stroke-width="1.8"/>
<path d="M51 94.1141H121" stroke="black" stroke-width="1.8"/>
<path d="M51 96.4234H121" stroke="black" stroke-width="1.8"/>
<path d="M51 98.7327H121" stroke="black" stroke-width="1.8"/>
<path d="M51 101.042H121" stroke="black" stroke-width="1.8"/>
<path d="M51 103.351H121" stroke="black" stroke-width="1.8"/>
<path d="M51 105.661H121" stroke="black" stroke-width="1.8"/>
<path d="M51 107.97H121" stroke="black" stroke-width="1.8"/>
<path d="M51 110.279H121" stroke="black" stroke-width="1.8"/>
<path d="M51 112.589H121" stroke="black" stroke-width="1.8"/>
<path d="M51 114.898H121" stroke="black" stroke-width="1.8"/>
<path d="M51 117.207H121" stroke="black" stroke-width="1.8"/>
<path d="M51 119.517H121" stroke="black" stroke-width="1.8"/>
<path d="M51 121.826H121" stroke="black" stroke-width="1.8"/>
<path d="M51 124.135H121" stroke="black" stroke-width="1.8"/>
<path d="M51 126.444H121" stroke="black" stroke-width="1.8"/>
</mask>
<g mask="url(#mask0_5_5)">
<path d="M97.0411 63.3955H87.9963V75.4953H96.584C97.6232 75.3991 100.502 75.5022 100.721 79.0074C100.986 83.2411 98.5566 86.9216 98.5566 86.9216C96.584 90.121 92.0616 90.121 92.0616 90.121H87.9963V102.245H96.9208C96.9208 102.245 101.78 102.245 103.728 104.843C106.209 108.151 106.759 113.182 104.907 116.197H65.6248V77.2995L56.1719 67.6052C54.6131 66.2003 53.6461 66.667 53.7415 68.7358V124.496C55.0501 127.113 57.7027 127.992 58.8653 128.104H106.759C117.416 125.987 117.849 113.912 117.849 113.912C118.643 105.396 115.972 99.1176 108.948 93.0798C112.451 90.2124 113.102 81.2526 112.99 77.1311C112.913 70.3186 108.082 66.5147 105.677 65.4643C103.97 64.7188 99.559 63.5719 97.0411 63.3955Z" fill="#D26748"/>
<path d="M79.722 115.596H70.4848V60.6238L79.722 68.0359V115.596Z" fill="#196999"/>
<path d="M86.8905 60.8271L76.21 52.3799V63.877L81.0556 67.6662V115.558H86.8905V60.8271Z" fill="#196999"/>
<path d="M60.8627 70.8045V40.2543L71.9762 49.0514V60.5468L69.2158 58.3475V115.547H66.912V77.0108L60.8627 70.8045Z" fill="#D26748"/>
</g>
<defs>
<linearGradient id="paint0_linear_5_5" x1="64.5041" y1="207.058" x2="166.847" y2="164.969" gradientUnits="userSpaceOnUse">
<stop offset="0.0012" stop-color="#FF0000"/>
<stop offset="0.0444" stop-color="#E10000"/>
<stop offset="0.0825" stop-color="#960000"/>
<stop offset="0.2948" stop-color="#F80003"/>
<stop offset="0.4449" stop-color="#DC0004"/>
<stop offset="0.5583" stop-color="#F80003"/>
<stop offset="0.6944" stop-color="#CD0001"/>
<stop offset="0.8484" stop-color="#980001"/>
<stop offset="0.9621" stop-color="#E30002"/>
<stop offset="1" stop-color="#FF0002"/>
</linearGradient>
<linearGradient id="paint1_linear_5_5" x1="1.76488" y1="165.329" x2="115.184" y2="209.042" gradientUnits="userSpaceOnUse">
<stop offset="0.0012" stop-color="#FF0000"/>
<stop offset="0.0444" stop-color="#E10000"/>
<stop offset="0.0825" stop-color="#960000"/>
<stop offset="0.2948" stop-color="#F80003"/>
<stop offset="0.4449" stop-color="#DC0004"/>
<stop offset="0.5583" stop-color="#F80003"/>
<stop offset="0.6944" stop-color="#CD0001"/>
<stop offset="0.8484" stop-color="#980001"/>
<stop offset="0.9621" stop-color="#E30002"/>
<stop offset="1" stop-color="#FF0002"/>
</linearGradient>
<linearGradient id="paint2_linear_5_5" x1="21.3552" y1="27.9675" x2="165.491" y2="152.61" gradientUnits="userSpaceOnUse">
<stop offset="0.0012" stop-color="#EFA22B"/>
<stop offset="0.134" stop-color="#F7DB51"/>
<stop offset="0.2948" stop-color="#FFC739"/>
<stop offset="0.446" stop-color="#FFF87B"/>
<stop offset="0.5583" stop-color="#FFC839"/>
<stop offset="0.6944" stop-color="#FFCE39"/>
<stop offset="0.8472" stop-color="#FFEF7B"/>
<stop offset="1" stop-color="#E09F26"/>
</linearGradient>
<linearGradient id="paint3_linear_5_5" x1="9.4842" y1="83.444" x2="161.532" y2="83.444" gradientUnits="userSpaceOnUse">
<stop offset="0.0012" stop-color="#C98214"/>
<stop offset="0.1351" stop-color="#DE9709"/>
<stop offset="0.2948" stop-color="#C2881B"/>
<stop offset="0.446" stop-color="#DB9E2E"/>
<stop offset="0.5583" stop-color="#E0A119"/>
<stop offset="0.6944" stop-color="#D48805"/>
<stop offset="0.8472" stop-color="#E0C041"/>
<stop offset="1" stop-color="#BF8720"/>
</linearGradient>
<linearGradient id="paint4_linear_5_5" x1="32.2358" y1="37.4916" x2="187.005" y2="170.995" gradientUnits="userSpaceOnUse">
<stop offset="0.0012" stop-color="#EFA22B"/>
<stop offset="0.134" stop-color="#F7DB51"/>
<stop offset="0.2948" stop-color="#FFC739"/>
<stop offset="0.446" stop-color="#FFF87B"/>
<stop offset="0.5583" stop-color="#FFC839"/>
<stop offset="0.6944" stop-color="#FFCE39"/>
<stop offset="0.8472" stop-color="#FFEF7B"/>
<stop offset="1" stop-color="#E09F26"/>
</linearGradient>
</defs>
</svg>
