<svg width="172" height="258" viewBox="0 0 172 258" fill="none" xmlns="http://www.w3.org/2000/svg">
<path d="M85.5074 258C132.732 258 171.014 256.364 171.014 254.347C171.014 252.329 132.732 250.694 85.5074 250.694C38.2832 250.694 0.000427246 252.329 0.000427246 254.347C0.000427246 256.364 38.2832 258 85.5074 258Z" fill="#D8DFEA"/>
<path d="M100.346 244.075L123.085 208.059C123.726 207.044 124.941 206.548 126.109 206.825L167.553 216.654C169.776 217.181 171.666 214.975 170.803 212.859L135.623 126.633L60.1894 157.409L95.3694 243.635C96.2324 245.753 99.1264 246.008 100.346 244.075Z" fill="url(#paint0_linear_5_5)"/>
<path d="M110.825 157.409L106.728 167.451L91.5804 204.578L90.9544 206.108L85.5074 219.465L75.6444 243.635C74.7814 245.75 71.8894 246.005 70.6664 244.075L47.9274 208.06C47.2904 207.046 46.0734 206.548 44.9024 206.826L3.45843 216.654C1.23943 217.181 -0.649566 214.973 0.213434 212.858L35.3934 126.631L110.825 157.409Z" fill="url(#paint1_linear_5_5)"/>
<path d="M85.5074 167.454C131.592 167.454 168.951 130.095 168.951 84.01C168.951 37.9251 131.592 0.566002 85.5074 0.566002C39.4226 0.566002 2.06342 37.9251 2.06342 84.01C2.06342 130.095 39.4226 167.454 85.5074 167.454Z" fill="url(#paint2_linear_5_5)"/>
<path d="M85.5074 160.034C127.494 160.034 161.531 125.997 161.531 84.01C161.531 42.0231 127.494 7.986 85.5074 7.986C43.5205 7.986 9.48343 42.0231 9.48343 84.01C9.48343 125.997 43.5205 160.034 85.5074 160.034Z" fill="url(#paint3_linear_5_5)"/>
<path d="M85.5074 155.381C124.925 155.381 156.878 123.427 156.878 84.01C156.878 44.5929 124.925 12.639 85.5074 12.639C46.0903 12.639 14.1364 44.5929 14.1364 84.01C14.1364 123.427 46.0903 155.381 85.5074 155.381Z" fill="url(#paint4_linear_5_5)"/>
<mask id="mask0_5_5" style="mask-type:alpha" maskUnits="userSpaceOnUse" x="51" y="40" width="70" height="88">
<path d="M51 41H121" stroke="black" stroke-width="1.8"/>
<path d="M51 43.3093H121" stroke="black" stroke-width="1.8"/>
<path d="M51 45.6186H121" stroke="black" stroke-width="1.8"/>
<path d="M51 47.9279H121" stroke="black" stroke-width="1.8"/>
<path d="M51 50.2372H121" stroke="black" stroke-width="1.8"/>
<path d="M51 52.5465H121" stroke="black" stroke-width="1.8"/>
<path d="M51 54.8559H121" stroke="black" stroke-width="1.8"/>
<path d="M51 57.1652H121" stroke="black" stroke-width="1.8"/>
<path d="M51 59.4745H121" stroke="black" stroke-width="1.8"/>
<path d="M51 61.7838H121" stroke="black" stroke-width="1.8"/>
<path d="M51 64.0931H121" stroke="black" stroke-width="1.8"/>
<path d="M51 66.4024H121" stroke="black" stroke-width="1.8"/>
<path d="M51 68.7117H121" stroke="black" stroke-width="1.8"/>
<path d="M51 71.021H121" stroke="black" stroke-width="1.8"/>
<path d="M51 73.3303H121" stroke="black" stroke-width="1.8"/>
<path d="M51 75.6397H121" stroke="black" stroke-width="1.8"/>
<path d="M51 77.949H121" stroke="black" stroke-width="1.8"/>
<path d="M51 80.2583H121" stroke="black" stroke-width="1.8"/>
<path d="M51 82.5676H121" stroke="black" stroke-width="1.8"/>
<path d="M51 84.8769H121" stroke="black" stroke-width="1.8"/>
<path d="M51 87.1862H121" stroke="black" stroke-width="1.8"/>
<path d="M51 89.4955H121" stroke="black" stroke-width="1.8"/>
<path d="M51 91.8048H121" stroke="black" stroke-width="1.8"/>
<path d="M51 94.1141H121" stroke="black" stroke-width="1.8"/>
<path d="M51 96.4234H121" stroke="black" stroke-width="1.8"/>
<path d="M51 98.7327H121" stroke="black" stroke-width="1.8"/>
<path d="M51 101.042H121" stroke="black" stroke-width="1.8"/>
<path d="M51 103.351H121" stroke="black" stroke-width="1.8"/>
<path d="M51 105.661H121" stroke="black" stroke-width="1.8"/>
<path d="M51 107.97H121" stroke="black" stroke-width="1.8"/>
<path d="M51 110.279H121" stroke="black" stroke-width="1.8"/>
<path d="M51 112.589H121" stroke="black" stroke-width="1.8"/>
<path d="M51 114.898H121" stroke="black" stroke-width="1.8"/>
<path d="M51 117.207H121" stroke="black" stroke-width="1.8"/>
<path d="M51 119.517H121" stroke="black" stroke-width="1.8"/>
<path d="M51 121.826H121" stroke="black" stroke-width="1.8"/>
<path d="M51 124.135H121" stroke="black" stroke-width="1.8"/>
<path d="M51 126.444H121" stroke="black" stroke-width="1.8"/>
</mask>
<g mask="url(#mask0_5_5)">
<path d="M97.0411 63.3955H87.9963V75.4953H96.584C97.6232 75.3991 100.502 75.5022 100.721 79.0074C100.986 83.2411 98.5566 86.9216 98.5566 86.9216C96.584 90.121 92.0617 90.121 92.0617 90.121H87.9963V102.245H96.9208C96.9208 102.245 101.78 102.245 103.728 104.843C106.209 108.151 106.759 113.182 104.907 116.197H65.6249V77.2995L56.1719 67.6052C54.6131 66.2003 53.6461 66.667 53.7416 68.7358V124.496C55.0502 127.113 57.7027 127.992 58.8653 128.104H106.759C117.416 125.987 117.849 113.912 117.849 113.912C118.643 105.396 115.972 99.1176 108.948 93.0798C112.451 90.2124 113.102 81.2526 112.99 77.1311C112.913 70.3186 108.082 66.5147 105.677 65.4643C103.97 64.7188 99.559 63.5719 97.0411 63.3955Z" fill="#D26748"/>
<path d="M79.722 115.596H70.4848V60.6238L79.722 68.0359V115.596Z" fill="#196999"/>
<path d="M86.8905 60.8271L76.21 52.3799V63.877L81.0556 67.6662V115.558H86.8905V60.8271Z" fill="#196999"/>
<path d="M60.8627 70.8045V40.2543L71.9762 49.0514V60.5468L69.2158 58.3475V115.547H66.912V77.0108L60.8627 70.8045Z" fill="#D26748"/>
</g>
<defs>
<linearGradient id="paint0_linear_5_5" x1="64.5038" y1="207.624" x2="166.847" y2="165.535" gradientUnits="userSpaceOnUse">
<stop offset="0.0012" stop-color="#FF0000"/>
<stop offset="0.0444" stop-color="#E10000"/>
<stop offset="0.0825" stop-color="#960000"/>
<stop offset="0.2948" stop-color="#F80003"/>
<stop offset="0.4449" stop-color="#DC0004"/>
<stop offset="0.5583" stop-color="#F80003"/>
<stop offset="0.6944" stop-color="#CD0001"/>
<stop offset="0.8484" stop-color="#980001"/>
<stop offset="0.9621" stop-color="#E30002"/>
<stop offset="1" stop-color="#FF0002"/>
</linearGradient>
<linearGradient id="paint1_linear_5_5" x1="1.76463" y1="165.895" x2="115.183" y2="209.608" gradientUnits="userSpaceOnUse">
<stop offset="0.0012" stop-color="#FF0000"/>
<stop offset="0.0444" stop-color="#E10000"/>
<stop offset="0.0825" stop-color="#960000"/>
<stop offset="0.2948" stop-color="#F80003"/>
<stop offset="0.4449" stop-color="#DC0004"/>
<stop offset="0.5583" stop-color="#F80003"/>
<stop offset="0.6944" stop-color="#CD0001"/>
<stop offset="0.8484" stop-color="#980001"/>
<stop offset="0.9621" stop-color="#E30002"/>
<stop offset="1" stop-color="#FF0002"/>
</linearGradient>
<linearGradient id="paint2_linear_5_5" x1="21.3549" y1="28.5335" x2="165.491" y2="153.176" gradientUnits="userSpaceOnUse">
<stop offset="0.0012" stop-color="#EF832B"/>
<stop offset="0.134" stop-color="#F79C51"/>
<stop offset="0.2948" stop-color="#FF9539"/>
<stop offset="0.446" stop-color="#FFAE7B"/>
<stop offset="0.5583" stop-color="#FF8F39"/>
<stop offset="0.6956" stop-color="#FF9239"/>
<stop offset="0.8472" stop-color="#FFB27B"/>
<stop offset="1" stop-color="#E07426"/>
</linearGradient>
<linearGradient id="paint3_linear_5_5" x1="9.48393" y1="84.01" x2="161.532" y2="84.01" gradientUnits="userSpaceOnUse">
<stop offset="0.0035" stop-color="#AB501F"/>
<stop offset="0.1351" stop-color="#A65B25"/>
<stop offset="0.2948" stop-color="#DB6C12"/>
<stop offset="0.446" stop-color="#DB824A"/>
<stop offset="0.5583" stop-color="#D16B1D"/>
<stop offset="0.6956" stop-color="#C45A21"/>
<stop offset="0.8472" stop-color="#F78C3E"/>
<stop offset="1" stop-color="#D16C24"/>
</linearGradient>
<linearGradient id="paint4_linear_5_5" x1="32.2356" y1="38.0576" x2="187.005" y2="171.561" gradientUnits="userSpaceOnUse">
<stop offset="0.0012" stop-color="#EF832B"/>
<stop offset="0.134" stop-color="#F79C51"/>
<stop offset="0.2948" stop-color="#FF9539"/>
<stop offset="0.446" stop-color="#FFAE7B"/>
<stop offset="0.5583" stop-color="#FF8F39"/>
<stop offset="0.6956" stop-color="#FF9239"/>
<stop offset="0.8472" stop-color="#FFB27B"/>
<stop offset="1" stop-color="#E07426"/>
</linearGradient>
</defs>
</svg>
