<?xml version="1.0" encoding="utf-8"?>
<!-- Generator: Adobe Illustrator 27.5.0, SVG Export Plug-In . SVG Version: 6.00 Build 0)  -->
<svg version="1.1" xmlns="http://www.w3.org/2000/svg" xmlns:xlink="http://www.w3.org/1999/xlink" x="0px" y="0px"
	 viewBox="0 0 500 500" style="enable-background:new 0 0 500 500;" xml:space="preserve">
<g id="Background_Simple">
	<g>
		<path style="fill:#f7a31c;" d="M437.744,180.311c-9.621-23.445-24.366-45.185-43.309-61.66
			c-22.217-19.323-57.265-34.217-86.898-23.684c-30.663,10.899-51.178,37.032-73.919,58.279
			c-7.986,7.461-16.722,14.537-27.084,18.691c-47.454,19.022-79.686-6.917-121.767,22.48
			c-42.081,29.397-45.663,88.191-17.907,125.369c27.756,37.179,94.012,31.991,144.151,31.991s42.081,35.449,129.826,36.314
			c89.732,0.884,118.057-94.302,108.354-165.542C447.257,208.363,443.38,194.044,437.744,180.311z"/>
		<path style="opacity:0.7;fill:#FFFFFF;" d="M437.744,180.311c-9.621-23.445-24.366-45.185-43.309-61.66
			c-22.217-19.323-57.265-34.217-86.898-23.684c-30.663,10.899-51.178,37.032-73.919,58.279
			c-7.986,7.461-16.722,14.537-27.084,18.691c-47.454,19.022-79.686-6.917-121.767,22.48
			c-42.081,29.397-45.663,88.191-17.907,125.369c27.756,37.179,94.012,31.991,144.151,31.991s42.081,35.449,129.826,36.314
			c89.732,0.884,118.057-94.302,108.354-165.542C447.257,208.363,443.38,194.044,437.744,180.311z"/>
	</g>
</g>
<g id="Clouds">
	<g>
		<path style="fill:#f7a31c;" d="M238.014,121.009c-5.805-3.166-8.444-0.528-10.555-3.166c-2.111-2.639,5.805-9.5-10.027-16.36
			c0,0-1.055-14.777-22.693-15.304c-21.637-0.528-15.832,14.777-21.637,18.471c-5.805,3.694-7.388-2.111-13.193,1.583
			c-5.805,3.694-3.167,11.083-7.916,12.138c-4.75,1.055-11.083-4.75-16.888-1.056c-5.805,3.694-5.805,6.86-8.444,6.86
			c-2.639,0-7.916-2.111-11.083,0c-3.166,2.111-6.861,4.75-6.861,4.75h133.518C242.236,128.925,243.819,124.175,238.014,121.009z"/>
		<path style="opacity:0.5;fill:#FFFFFF;" d="M238.014,121.009c-5.805-3.166-8.444-0.528-10.555-3.166
			c-2.111-2.639,5.805-9.5-10.027-16.36c0,0-1.055-14.777-22.693-15.304c-21.637-0.528-15.832,14.777-21.637,18.471
			c-5.805,3.694-7.388-2.111-13.193,1.583c-5.805,3.694-3.167,11.083-7.916,12.138c-4.75,1.055-11.083-4.75-16.888-1.056
			c-5.805,3.694-5.805,6.86-8.444,6.86c-2.639,0-7.916-2.111-11.083,0c-3.166,2.111-6.861,4.75-6.861,4.75h133.518
			C242.236,128.925,243.819,124.175,238.014,121.009z"/>
	</g>
	<path style="fill:#FFFFFF;" d="M347.608,143.31c-3.73-2.034-5.425-0.339-6.781-2.034c-1.356-1.695,3.729-6.103-6.442-10.51
		c0,0-0.678-9.493-14.579-9.832c-13.901-0.339-10.171,9.493-13.901,11.867c-3.729,2.373-4.747-1.356-8.476,1.017
		c-3.73,2.373-2.034,7.12-5.086,7.798c-3.051,0.678-7.12-3.051-10.849-0.678s-3.729,4.408-5.425,4.408c-1.695,0-5.086-1.356-7.12,0
		c-2.034,1.356-4.408,3.051-4.408,3.051h85.777C350.32,148.396,351.337,145.344,347.608,143.31z"/>
</g>
<g id="House">
	<g>
		<g>
			
				<rect x="112.092" y="240.419" style="fill:#FFFFFF;stroke:#263238;strokeLinecap:round;strokeLinejoin:round;stroke-miterlimit:10;" width="272.473" height="85.981"/>
			<polygon style="fill:#f7a31c;stroke:#263238;strokeLinecap:round;strokeLinejoin:round;stroke-miterlimit:10;" points="
				248.688,161.971 112.812,240.419 384.564,240.419 			"/>
		</g>
		
			<rect x="236.109" y="233.432" style="fill:#FFFFFF;stroke:#263238;strokeLinecap:round;strokeLinejoin:round;stroke-miterlimit:10;" width="67.426" height="92.967"/>
		
			<rect x="236.109" y="233.432" style="fill:#263238;stroke:#263238;strokeLinecap:round;strokeLinejoin:round;stroke-miterlimit:10;" width="67.426" height="3.954"/>
		<path style="fill:#263238;stroke:#263238;strokeLinecap:round;strokeLinejoin:round;stroke-miterlimit:10;" d="M286.659,326.4
			h-33.674v-58.112c0-9.299,7.538-16.837,16.837-16.837l0,0c9.299,0,16.837,7.538,16.837,16.837V326.4z"/>
		
			<rect x="92.529" y="255.48" style="fill:#FFFFFF;stroke:#263238;strokeLinecap:round;strokeLinejoin:round;stroke-miterlimit:10;" width="156.18" height="70.92"/>
		
			<rect x="92.529" y="255.48" style="fill:#263238;stroke:#263238;strokeLinecap:round;strokeLinejoin:round;stroke-miterlimit:10;" width="156.18" height="3.163"/>
		
			<rect x="109.714" y="261.329" style="fill:#f7a31c;stroke:#263238;strokeLinecap:round;strokeLinejoin:round;stroke-miterlimit:10;" width="121.81" height="65.071"/>
		<polygon style="fill:#f7a31c;stroke:#263238;strokeLinecap:round;strokeLinejoin:round;stroke-miterlimit:10;" points="
			170.619,203.595 87.732,251.45 253.506,251.45 		"/>
		
			<rect x="87.732" y="251.45" style="fill:#FFFFFF;stroke:#263238;strokeLinecap:round;strokeLinejoin:round;stroke-miterlimit:10;" width="165.774" height="4.029"/>
		<polygon style="fill:#f7a31c;stroke:#263238;strokeLinecap:round;strokeLinejoin:round;stroke-miterlimit:10;" points="
			269.822,206.447 226.896,231.23 312.748,231.23 		"/>
		
			<rect x="226.896" y="231.23" style="fill:#FFFFFF;stroke:#263238;strokeLinecap:round;strokeLinejoin:round;stroke-miterlimit:10;" width="85.851" height="3.979"/>
		<g>
			<g>
				
					<rect x="114.15" y="266.559" style="fill:#FFFFFF;stroke:#263238;strokeLinecap:round;strokeLinejoin:round;stroke-miterlimit:10;" width="9.865" height="9.865"/>
				
					<rect x="128.947" y="266.559" style="fill:#FFFFFF;stroke:#263238;strokeLinecap:round;strokeLinejoin:round;stroke-miterlimit:10;" width="9.865" height="9.865"/>
				
					<rect x="143.744" y="266.559" style="fill:#FFFFFF;stroke:#263238;strokeLinecap:round;strokeLinejoin:round;stroke-miterlimit:10;" width="9.865" height="9.865"/>
				
					<rect x="158.541" y="266.559" style="fill:#FFFFFF;stroke:#263238;strokeLinecap:round;strokeLinejoin:round;stroke-miterlimit:10;" width="9.865" height="9.865"/>
				
					<rect x="173.338" y="266.559" style="fill:#FFFFFF;stroke:#263238;strokeLinecap:round;strokeLinejoin:round;stroke-miterlimit:10;" width="9.865" height="9.865"/>
				
					<rect x="188.135" y="266.559" style="fill:#FFFFFF;stroke:#263238;strokeLinecap:round;strokeLinejoin:round;stroke-miterlimit:10;" width="9.865" height="9.865"/>
				
					<rect x="202.932" y="266.559" style="fill:#FFFFFF;stroke:#263238;strokeLinecap:round;strokeLinejoin:round;stroke-miterlimit:10;" width="9.865" height="9.865"/>
				
					<rect x="217.729" y="266.559" style="fill:#FFFFFF;stroke:#263238;strokeLinecap:round;strokeLinejoin:round;stroke-miterlimit:10;" width="9.865" height="9.865"/>
			</g>
			<g>
				
					<rect x="114.15" y="281.075" style="fill:#FFFFFF;stroke:#263238;strokeLinecap:round;strokeLinejoin:round;stroke-miterlimit:10;" width="9.865" height="9.865"/>
				
					<rect x="128.947" y="281.075" style="fill:#FFFFFF;stroke:#263238;strokeLinecap:round;strokeLinejoin:round;stroke-miterlimit:10;" width="9.865" height="9.865"/>
				
					<rect x="143.744" y="281.075" style="fill:#FFFFFF;stroke:#263238;strokeLinecap:round;strokeLinejoin:round;stroke-miterlimit:10;" width="9.865" height="9.865"/>
				
					<rect x="158.541" y="281.075" style="fill:#FFFFFF;stroke:#263238;strokeLinecap:round;strokeLinejoin:round;stroke-miterlimit:10;" width="9.865" height="9.865"/>
				
					<rect x="173.338" y="281.075" style="fill:#FFFFFF;stroke:#263238;strokeLinecap:round;strokeLinejoin:round;stroke-miterlimit:10;" width="9.865" height="9.865"/>
				
					<rect x="188.135" y="281.075" style="fill:#FFFFFF;stroke:#263238;strokeLinecap:round;strokeLinejoin:round;stroke-miterlimit:10;" width="9.865" height="9.865"/>
				
					<rect x="202.932" y="281.075" style="fill:#FFFFFF;stroke:#263238;strokeLinecap:round;strokeLinejoin:round;stroke-miterlimit:10;" width="9.865" height="9.865"/>
				
					<rect x="217.729" y="281.075" style="fill:#FFFFFF;stroke:#263238;strokeLinecap:round;strokeLinejoin:round;stroke-miterlimit:10;" width="9.865" height="9.865"/>
			</g>
			<g>
				
					<rect x="114.15" y="295.591" style="fill:#FFFFFF;stroke:#263238;strokeLinecap:round;strokeLinejoin:round;stroke-miterlimit:10;" width="9.865" height="9.865"/>
				
					<rect x="128.947" y="295.591" style="fill:#FFFFFF;stroke:#263238;strokeLinecap:round;strokeLinejoin:round;stroke-miterlimit:10;" width="9.865" height="9.865"/>
				
					<rect x="143.744" y="295.591" style="fill:#FFFFFF;stroke:#263238;strokeLinecap:round;strokeLinejoin:round;stroke-miterlimit:10;" width="9.865" height="9.865"/>
				
					<rect x="158.541" y="295.591" style="fill:#FFFFFF;stroke:#263238;strokeLinecap:round;strokeLinejoin:round;stroke-miterlimit:10;" width="9.865" height="9.865"/>
				
					<rect x="173.338" y="295.591" style="fill:#FFFFFF;stroke:#263238;strokeLinecap:round;strokeLinejoin:round;stroke-miterlimit:10;" width="9.865" height="9.865"/>
				
					<rect x="188.135" y="295.591" style="fill:#FFFFFF;stroke:#263238;strokeLinecap:round;strokeLinejoin:round;stroke-miterlimit:10;" width="9.865" height="9.865"/>
				
					<rect x="202.932" y="295.591" style="fill:#FFFFFF;stroke:#263238;strokeLinecap:round;strokeLinejoin:round;stroke-miterlimit:10;" width="9.865" height="9.865"/>
				
					<rect x="217.729" y="295.591" style="fill:#FFFFFF;stroke:#263238;strokeLinecap:round;strokeLinejoin:round;stroke-miterlimit:10;" width="9.865" height="9.865"/>
			</g>
			<g>
				
					<rect x="114.15" y="310.107" style="fill:#FFFFFF;stroke:#263238;strokeLinecap:round;strokeLinejoin:round;stroke-miterlimit:10;" width="9.865" height="9.865"/>
				
					<rect x="128.947" y="310.107" style="fill:#FFFFFF;stroke:#263238;strokeLinecap:round;strokeLinejoin:round;stroke-miterlimit:10;" width="9.865" height="9.865"/>
				
					<rect x="143.744" y="310.107" style="fill:#FFFFFF;stroke:#263238;strokeLinecap:round;strokeLinejoin:round;stroke-miterlimit:10;" width="9.865" height="9.865"/>
				
					<rect x="158.541" y="310.107" style="fill:#FFFFFF;stroke:#263238;strokeLinecap:round;strokeLinejoin:round;stroke-miterlimit:10;" width="9.865" height="9.865"/>
				
					<rect x="173.338" y="310.107" style="fill:#FFFFFF;stroke:#263238;strokeLinecap:round;strokeLinejoin:round;stroke-miterlimit:10;" width="9.865" height="9.865"/>
				
					<rect x="188.135" y="310.107" style="fill:#FFFFFF;stroke:#263238;strokeLinecap:round;strokeLinejoin:round;stroke-miterlimit:10;" width="9.865" height="9.865"/>
				
					<rect x="202.932" y="310.107" style="fill:#FFFFFF;stroke:#263238;strokeLinecap:round;strokeLinejoin:round;stroke-miterlimit:10;" width="9.865" height="9.865"/>
				
					<rect x="217.729" y="310.107" style="fill:#FFFFFF;stroke:#263238;strokeLinecap:round;strokeLinejoin:round;stroke-miterlimit:10;" width="9.865" height="9.865"/>
			</g>
		</g>
		
			<line style="fill:#263238;stroke:#FFFFFF;strokeLinecap:round;strokeLinejoin:round;stroke-miterlimit:10;" x1="259.783" y1="316.077" x2="259.783" y2="326.4"/>
		<polyline style="fill:#263238;stroke:#FFFFFF;strokeLinecap:round;strokeLinejoin:round;stroke-miterlimit:10;" points="
			277.909,326.4 277.909,271.492 259.783,271.492 259.783,311.53 		"/>
		<polygon style="fill:#FFFFFF;stroke:#263238;strokeLinecap:round;strokeLinejoin:round;stroke-miterlimit:10;" points="
			392.29,326.4 292.671,326.4 292.671,233.432 342.48,206.447 392.29,233.432 		"/>
		<g>
			<polygon style="fill:#FFFFFF;stroke:#263238;strokeLinecap:round;strokeLinejoin:round;stroke-miterlimit:10;" points="
				399.903,237.386 342.48,206.275 285.056,237.386 283.27,234.089 342.48,202.01 401.691,234.089 			"/>
		</g>
		<polygon style="fill:#263238;stroke:#263238;strokeLinecap:round;strokeLinejoin:round;stroke-miterlimit:10;" points="
			292.671,233.432 292.671,235.692 342.48,208.707 392.29,235.692 392.29,233.432 342.48,206.447 		"/>
		<polyline style="fill:#FFFFFF;stroke:#263238;strokeLinecap:round;strokeLinejoin:round;stroke-miterlimit:10;" points="
			320.685,256.009 320.685,246.208 363.667,246.208 363.667,295.064 		"/>
		<polyline style="fill:#FFFFFF;stroke:#263238;strokeLinecap:round;strokeLinejoin:round;stroke-miterlimit:10;" points="
			363.667,300.11 363.667,309.727 320.685,309.727 320.685,259.739 		"/>
		<g>
			
				<rect x="344.087" y="265.298" style="fill:#263238;stroke:#263238;strokeLinecap:round;strokeLinejoin:round;stroke-miterlimit:10;" width="16.715" height="11.617"/>
			
				<rect x="344.087" y="280.735" style="fill:#263238;stroke:#263238;strokeLinecap:round;strokeLinejoin:round;stroke-miterlimit:10;" width="16.715" height="11.617"/>
			
				<rect x="344.087" y="249.074" style="fill:#263238;stroke:#263238;strokeLinecap:round;strokeLinejoin:round;stroke-miterlimit:10;" width="16.715" height="12.404"/>
			
				<rect x="323.551" y="249.074" style="fill:#263238;stroke:#263238;strokeLinecap:round;strokeLinejoin:round;stroke-miterlimit:10;" width="16.715" height="12.404"/>
			
				<rect x="323.551" y="280.735" style="fill:#263238;stroke:#263238;strokeLinecap:round;strokeLinejoin:round;stroke-miterlimit:10;" width="16.715" height="11.617"/>
			
				<rect x="323.551" y="265.298" style="fill:#263238;stroke:#263238;strokeLinecap:round;strokeLinejoin:round;stroke-miterlimit:10;" width="16.715" height="11.617"/>
			
				<rect x="344.087" y="296.173" style="fill:#263238;stroke:#263238;strokeLinecap:round;strokeLinejoin:round;stroke-miterlimit:10;" width="16.715" height="10.688"/>
			
				<rect x="323.551" y="296.173" style="fill:#263238;stroke:#263238;strokeLinecap:round;strokeLinejoin:round;stroke-miterlimit:10;" width="16.715" height="10.688"/>
		</g>
	</g>
</g>
<g id="Search_Engine">
	<g>
		<g>
			
				<line style="fill:none;stroke:#263238;strokeLinecap:round;strokeLinejoin:round;stroke-miterlimit:10;stroke-dasharray:2,4;" x1="322.172" y1="364.747" x2="342.923" y2="364.747"/>
			
				<path style="fill:none;stroke:#263238;strokeLinecap:round;strokeLinejoin:round;stroke-miterlimit:10;stroke-dasharray:2,4;" d="
				M119.852,138.217h-2.594c-8.595,0-15.563,6.968-15.563,15.563v195.403c0,8.595,6.968,15.563,15.563,15.563h188.486"/>
			
				<path style="fill:none;stroke:#263238;strokeLinecap:round;strokeLinejoin:round;stroke-miterlimit:10;stroke-dasharray:2,4;" d="
				M379.237,153.78L379.237,153.78c0-8.595-6.968-15.563-15.563-15.563H133.686"/>
		</g>
		<g id="XMLID_23_">
			<g id="XMLID_20_">
				
					<path id="XMLID_13_" style="fill:#FFFFFF;stroke:#263238;strokeLinecap:round;strokeLinejoin:round;stroke-miterlimit:10;" d="
					M378.829,161.264c-35.416,0.199-63.965,29.072-63.766,64.488c0.199,35.416,29.072,63.965,64.488,63.766
					c35.416-0.199,63.965-29.072,63.766-64.488C443.118,189.614,414.245,161.065,378.829,161.264z M379.48,276.856
					c-28.423,0.16-51.595-22.752-51.755-51.175c-0.16-28.423,22.752-51.595,51.175-51.755c28.423-0.16,51.595,22.752,51.755,51.175
					C430.815,253.525,407.903,276.696,379.48,276.856z"/>
				
					<path id="XMLID_18_" style="fill:#FFFFFF;stroke:#263238;strokeLinecap:round;strokeLinejoin:round;stroke-miterlimit:10;" d="
					M378.809,157.588c-35.416,0.2-63.965,29.072-63.766,64.488c0.2,35.416,29.072,63.965,64.488,63.766
					c35.416-0.199,63.965-29.072,63.766-64.488C443.097,185.938,414.225,157.389,378.809,157.588z M379.459,273.18
					c-28.423,0.16-51.595-22.752-51.755-51.175c-0.16-28.423,22.752-51.595,51.175-51.755c28.423-0.16,51.595,22.752,51.755,51.175
					C430.794,249.849,407.883,273.02,379.459,273.18z"/>
				
					<path id="XMLID_19_" style="fill:#f7a31c;stroke:#263238;strokeLinecap:round;strokeLinejoin:round;stroke-miterlimit:10;" d="
					M385.155,344.425l-9.752,0.055c-1.593,0.009-2.892-1.275-2.901-2.868l-0.289-51.414c-0.009-1.593,1.275-2.892,2.868-2.901
					l9.752-0.055c1.593-0.009,2.892,1.275,2.901,2.868l0.289,51.415C388.033,343.118,386.748,344.416,385.155,344.425z"/>
				
					<path id="XMLID_12_" style="fill:#263238;stroke:#263238;strokeLinecap:round;strokeLinejoin:round;stroke-miterlimit:10;" d="
					M386.487,413.764l-13.111,0.071c-4.036,0.022-7.325-3.232-7.348-7.268l-0.041-76.745c-0.018-3.155,2.525-5.727,5.68-5.745
					l16.302-0.092c3.155-0.018,5.727,2.525,5.745,5.68l0.041,76.75C393.777,410.452,390.523,413.742,386.487,413.764z"/>
			</g>
		</g>
	</g>
</g>
</svg>
