<svg width="6023" height="1859" viewBox="0 0 6023 1859" fill="none" xmlns="http://www.w3.org/2000/svg">
<mask id="mask0_80416_177" style="mask-type:alpha" maskUnits="userSpaceOnUse" x="0" y="-7" width="1455" height="1821">
<line y1="15.5" x2="1454.98" y2="15.5" stroke="black" stroke-width="45"/>
<line y1="63.5" x2="1454.98" y2="63.5" stroke="black" stroke-width="45"/>
<line y1="111.5" x2="1454.98" y2="111.5" stroke="black" stroke-width="45"/>
<line y1="159.5" x2="1454.98" y2="159.5" stroke="black" stroke-width="45"/>
<line y1="207.5" x2="1454.98" y2="207.5" stroke="black" stroke-width="45"/>
<line y1="255.5" x2="1454.98" y2="255.5" stroke="black" stroke-width="45"/>
<line y1="303.5" x2="1454.98" y2="303.5" stroke="black" stroke-width="45"/>
<line y1="351.5" x2="1454.98" y2="351.5" stroke="black" stroke-width="45"/>
<line y1="399.5" x2="1454.98" y2="399.5" stroke="black" stroke-width="45"/>
<line y1="447.5" x2="1454.98" y2="447.5" stroke="black" stroke-width="45"/>
<line y1="495.5" x2="1454.98" y2="495.5" stroke="black" stroke-width="45"/>
<line y1="543.5" x2="1454.98" y2="543.5" stroke="black" stroke-width="45"/>
<line y1="591.5" x2="1454.98" y2="591.5" stroke="black" stroke-width="45"/>
<line y1="639.5" x2="1454.98" y2="639.5" stroke="black" stroke-width="45"/>
<line y1="687.5" x2="1454.98" y2="687.5" stroke="black" stroke-width="45"/>
<line y1="735.5" x2="1454.98" y2="735.5" stroke="black" stroke-width="45"/>
<line y1="783.5" x2="1454.98" y2="783.5" stroke="black" stroke-width="45"/>
<line y1="831.5" x2="1454.98" y2="831.5" stroke="black" stroke-width="45"/>
<line y1="879.5" x2="1454.98" y2="879.5" stroke="black" stroke-width="45"/>
<line y1="927.5" x2="1454.98" y2="927.5" stroke="black" stroke-width="45"/>
<line y1="975.5" x2="1454.98" y2="975.5" stroke="black" stroke-width="45"/>
<line y1="1023.5" x2="1454.98" y2="1023.5" stroke="black" stroke-width="45"/>
<line y1="1071.5" x2="1454.98" y2="1071.5" stroke="black" stroke-width="45"/>
<line y1="1119.5" x2="1454.98" y2="1119.5" stroke="black" stroke-width="45"/>
<line y1="1167.5" x2="1454.98" y2="1167.5" stroke="black" stroke-width="45"/>
<line y1="1215.5" x2="1454.98" y2="1215.5" stroke="black" stroke-width="45"/>
<line y1="1263.5" x2="1454.98" y2="1263.5" stroke="black" stroke-width="45"/>
<line y1="1311.5" x2="1454.98" y2="1311.5" stroke="black" stroke-width="45"/>
<line y1="1359.5" x2="1454.98" y2="1359.5" stroke="black" stroke-width="45"/>
<line y1="1407.5" x2="1454.98" y2="1407.5" stroke="black" stroke-width="45"/>
<line y1="1455.5" x2="1454.98" y2="1455.5" stroke="black" stroke-width="45"/>
<line y1="1503.5" x2="1454.98" y2="1503.5" stroke="black" stroke-width="45"/>
<line y1="1551.5" x2="1454.98" y2="1551.5" stroke="black" stroke-width="45"/>
<line y1="1599.5" x2="1454.98" y2="1599.5" stroke="black" stroke-width="45"/>
<line y1="1647.5" x2="1454.98" y2="1647.5" stroke="black" stroke-width="45"/>
<line y1="1695.5" x2="1454.98" y2="1695.5" stroke="black" stroke-width="45"/>
<line y1="1743.5" x2="1454.98" y2="1743.5" stroke="black" stroke-width="45"/>
<line y1="1791.5" x2="1454.98" y2="1791.5" stroke="black" stroke-width="45"/>
</mask>
<g mask="url(#mask0_80416_177)">
<path d="M956.984 481H768.984V732.5H947.484C969.084 730.5 1028.93 732.642 1033.48 805.5C1038.98 893.5 988.484 970 988.484 970C947.484 1036.5 853.484 1036.5 853.484 1036.5H768.984V1288.5H954.484C954.484 1288.5 1055.48 1288.5 1095.98 1342.5C1147.55 1411.26 1158.97 1515.83 1120.48 1578.5H303.984V770L107.5 568.5C75.0999 539.3 55 549 56.9843 592V1751C84.1843 1805.4 139.318 1823.67 163.484 1826H1158.98C1380.48 1782 1389.48 1531 1389.48 1531C1405.98 1354 1350.48 1223.5 1204.48 1098C1277.28 1038.4 1290.82 852.167 1288.48 766.5C1286.88 624.9 1186.48 545.833 1136.48 524C1101 508.505 1009.32 484.667 956.984 481Z" fill="#D26748"/>
<path d="M597 1566H405V423.389L597 577.453V1566Z" fill="#196999"/>
<path d="M746 427.615L524 252.035V491.008L624.718 569.769V1565.23H746L746 427.615Z" fill="#196999"/>
<path d="M205 635V0L436 182.852V421.789L378.624 376.076V1565H330.737V764L205 635Z" fill="#D26748"/>
</g>
<path d="M1517.14 1289V574.091H1803.38C1855.97 574.091 1899.84 581.887 1934.98 597.479C1970.12 613.071 1996.53 634.714 2014.22 662.407C2031.91 689.868 2040.75 721.518 2040.75 757.356C2040.75 785.282 2035.17 809.834 2024 831.011C2012.82 851.956 1997.47 869.177 1977.92 882.675C1958.6 895.94 1936.49 905.365 1911.59 910.95V917.931C1938.82 919.095 1964.3 926.775 1988.04 940.971C2012.01 955.166 2031.44 975.064 2046.34 1000.66C2061.23 1026.03 2068.68 1056.28 2068.68 1091.42C2068.68 1129.36 2059.25 1163.22 2040.4 1193C2021.78 1222.56 1994.21 1245.95 1957.67 1263.17C1921.13 1280.39 1876.1 1289 1822.58 1289H1517.14ZM1668.29 1165.43H1791.51C1833.63 1165.43 1864.35 1157.4 1883.67 1141.34C1902.98 1125.05 1912.64 1103.41 1912.64 1076.41C1912.64 1056.63 1907.87 1039.18 1898.33 1024.05C1888.79 1008.92 1875.17 997.056 1857.49 988.445C1840.03 979.834 1819.2 975.529 1795 975.529H1668.29V1165.43ZM1668.29 873.25H1780.34C1801.05 873.25 1819.44 869.643 1835.49 862.428C1851.78 854.981 1864.58 844.509 1873.89 831.011C1883.43 817.514 1888.2 801.34 1888.2 782.49C1888.2 756.658 1879.01 735.83 1860.63 720.005C1842.48 704.18 1816.64 696.268 1783.13 696.268H1668.29V873.25ZM2186.69 1289V574.091H2337.84V869.061H2644.68V574.091H2795.48V1289H2644.68V993.681H2337.84V1289H2186.69ZM3381.34 574.091H3532.49V1038.36C3532.49 1090.49 3520.04 1136.1 3495.14 1175.2C3470.47 1214.3 3435.91 1244.78 3391.46 1266.66C3347.02 1288.3 3295.24 1299.12 3236.13 1299.12C3176.78 1299.12 3124.89 1288.3 3080.44 1266.66C3035.99 1244.78 3001.43 1214.3 2976.76 1175.2C2952.09 1136.1 2939.76 1090.49 2939.76 1038.36V574.091H3090.91V1025.45C3090.91 1052.68 3096.84 1076.88 3108.71 1098.06C3120.81 1119.23 3137.8 1135.87 3159.68 1147.97C3181.55 1160.07 3207.04 1166.12 3236.13 1166.12C3265.45 1166.12 3290.93 1160.07 3312.57 1147.97C3334.45 1135.87 3351.32 1119.23 3363.19 1098.06C3375.29 1076.88 3381.34 1052.68 3381.34 1025.45V574.091ZM3676.51 574.091H3862.92L4059.8 1054.42H4068.17L4265.05 574.091H4451.46V1289H4304.85V823.681H4298.91L4113.9 1285.51H4014.07L3829.06 821.935H3823.12V1289H3676.51V574.091ZM4718.88 1289H4556.91L4803.7 574.091H4998.49L5244.94 1289H5082.96L4903.89 737.459H4898.3L4718.88 1289ZM4708.75 1007.99H5091.34V1125.98H4708.75V1007.99ZM5350.64 1289V574.091H5632.7C5686.92 574.091 5733.12 584.447 5771.28 605.159C5809.45 625.638 5838.54 654.146 5858.55 690.682C5878.8 726.986 5888.92 768.876 5888.92 816.35C5888.92 863.825 5878.68 905.714 5858.2 942.018C5837.72 978.322 5808.05 1006.6 5769.19 1026.84C5730.56 1047.09 5683.78 1057.21 5628.86 1057.21H5449.08V936.083H5604.42C5633.51 936.083 5657.48 931.08 5676.33 921.073C5695.42 910.834 5709.61 896.754 5718.92 878.835C5728.46 860.683 5733.23 839.855 5733.23 816.35C5733.23 792.613 5728.46 771.901 5718.92 754.214C5709.61 736.295 5695.42 722.448 5676.33 712.674C5657.25 702.667 5633.05 697.664 5603.72 697.664H5501.79V1289H5350.64Z" fill="black"/>
<path d="M1525.93 1761V1464.27H1629.67C1650.34 1464.27 1667.39 1467.85 1680.82 1474.99C1694.24 1482.05 1704.24 1491.56 1710.81 1503.54C1717.38 1515.42 1720.66 1528.6 1720.66 1543.09C1720.66 1555.84 1718.39 1566.37 1713.85 1574.68C1709.41 1582.98 1703.51 1589.55 1696.17 1594.38C1688.93 1599.21 1681.06 1602.78 1672.56 1605.1V1608C1681.64 1608.58 1690.76 1611.77 1699.94 1617.56C1709.12 1623.36 1716.8 1631.66 1722.98 1642.48C1729.16 1653.3 1732.25 1666.53 1732.25 1682.18C1732.25 1697.06 1728.87 1710.43 1722.11 1722.32C1715.35 1734.2 1704.67 1743.61 1690.09 1750.57C1675.5 1757.52 1656.52 1761 1633.15 1761H1525.93ZM1561.86 1729.12H1633.15C1656.62 1729.12 1673.28 1724.59 1683.13 1715.51C1693.08 1706.33 1698.06 1695.22 1698.06 1682.18C1698.06 1672.14 1695.5 1662.86 1690.38 1654.36C1685.26 1645.77 1677.97 1638.91 1668.5 1633.79C1659.03 1628.57 1647.83 1625.97 1634.89 1625.97H1561.86V1729.12ZM1561.86 1594.67H1628.51C1639.33 1594.67 1649.09 1592.55 1657.78 1588.3C1666.57 1584.05 1673.52 1578.06 1678.64 1570.33C1683.86 1562.6 1686.47 1553.52 1686.47 1543.09C1686.47 1530.05 1681.93 1518.99 1672.85 1509.91C1663.77 1500.74 1649.38 1496.15 1629.67 1496.15H1561.86V1594.67ZM1902.42 1670.01V1538.45H1936.62V1761H1902.42V1723.33H1900.11C1894.89 1734.63 1886.78 1744.24 1875.77 1752.16C1864.75 1759.99 1850.85 1763.9 1834.04 1763.9C1820.13 1763.9 1807.77 1760.86 1796.95 1754.77C1786.13 1748.59 1777.63 1739.32 1771.45 1726.95C1765.27 1714.49 1762.17 1698.8 1762.17 1679.86V1538.45H1796.37V1677.55C1796.37 1693.77 1800.91 1706.72 1809.99 1716.38C1819.16 1726.03 1830.85 1730.86 1845.05 1730.86C1853.55 1730.86 1862.19 1728.69 1870.98 1724.34C1879.87 1720 1887.31 1713.33 1893.3 1704.35C1899.38 1695.37 1902.42 1683.92 1902.42 1670.01ZM1996.79 1844.45C1990.99 1844.45 1985.82 1843.97 1981.29 1843.01C1976.75 1842.14 1973.61 1841.27 1971.87 1840.4L1980.56 1810.26C1988.87 1812.39 1996.21 1813.16 2002.58 1812.58C2008.96 1812 2014.61 1809.15 2019.54 1804.03C2024.56 1799.01 2029.15 1790.85 2033.3 1779.55L2039.67 1762.16L1957.38 1538.45H1994.47L2055.9 1715.8H2058.22L2119.65 1538.45H2156.74L2062.28 1793.45C2058.03 1804.95 2052.76 1814.46 2046.48 1822C2040.21 1829.63 2032.91 1835.28 2024.61 1838.95C2016.4 1842.62 2007.12 1844.45 1996.79 1844.45ZM2272.3 1761V1464.27H2372.56C2395.74 1464.27 2414.77 1468.23 2429.65 1476.15C2444.52 1483.98 2455.53 1494.75 2462.68 1508.46C2469.83 1522.18 2473.4 1537.78 2473.4 1555.26C2473.4 1572.74 2469.83 1588.25 2462.68 1601.77C2455.53 1615.29 2444.57 1625.92 2429.79 1633.64C2415.01 1641.28 2396.13 1645.09 2373.14 1645.09H2292.01V1612.64H2371.98C2387.82 1612.64 2400.57 1610.32 2410.23 1605.68C2419.99 1601.05 2427.04 1594.48 2431.39 1585.98C2435.83 1577.38 2438.05 1567.14 2438.05 1555.26C2438.05 1543.38 2435.83 1533 2431.39 1524.11C2426.94 1515.22 2419.84 1508.37 2410.09 1503.54C2400.33 1498.61 2387.44 1496.15 2371.4 1496.15H2308.23V1761H2272.3ZM2411.97 1627.7L2484.99 1761H2443.27L2371.4 1627.7H2411.97ZM2595.08 1765.64C2573.63 1765.64 2555.14 1760.9 2539.59 1751.44C2524.13 1741.88 2512.2 1728.55 2503.8 1711.45C2495.49 1694.26 2491.34 1674.26 2491.34 1651.47C2491.34 1628.67 2495.49 1608.58 2503.8 1591.19C2512.2 1573.71 2523.89 1560.09 2538.86 1550.34C2553.93 1540.48 2571.51 1535.56 2591.6 1535.56C2603.19 1535.56 2614.64 1537.49 2625.94 1541.35C2637.24 1545.22 2647.53 1551.49 2656.8 1560.19C2666.07 1568.78 2673.46 1580.18 2678.97 1594.38C2684.47 1608.58 2687.22 1626.06 2687.22 1646.83V1661.32H2515.68V1631.76H2652.45C2652.45 1619.2 2649.94 1608 2644.92 1598.15C2639.99 1588.3 2632.94 1580.52 2623.76 1574.82C2614.69 1569.12 2603.96 1566.27 2591.6 1566.27C2577.98 1566.27 2566.2 1569.65 2556.25 1576.41C2546.4 1583.08 2538.81 1591.77 2533.5 1602.49C2528.19 1613.22 2525.53 1624.71 2525.53 1636.98V1656.68C2525.53 1673.49 2528.43 1687.74 2534.22 1699.42C2540.12 1711.01 2548.28 1719.85 2558.71 1725.94C2569.14 1731.93 2581.26 1734.92 2595.08 1734.92C2604.06 1734.92 2612.17 1733.66 2619.42 1731.15C2626.76 1728.55 2633.09 1724.68 2638.4 1719.56C2643.71 1714.35 2647.82 1707.87 2650.71 1700.15L2683.75 1709.42C2680.27 1720.62 2674.43 1730.48 2666.22 1738.98C2658.01 1747.38 2647.86 1753.95 2635.79 1758.68C2623.72 1763.32 2610.15 1765.64 2595.08 1765.64ZM2748.95 1627.12V1761H2714.76V1538.45H2747.79V1573.23H2750.69C2755.91 1561.93 2763.83 1552.85 2774.45 1545.99C2785.08 1539.03 2798.79 1535.56 2815.6 1535.56C2830.67 1535.56 2843.85 1538.65 2855.15 1544.83C2866.46 1550.91 2875.24 1560.19 2881.52 1572.65C2887.8 1585.01 2890.94 1600.66 2890.94 1619.59V1761H2856.75V1621.91C2856.75 1604.43 2852.21 1590.81 2843.13 1581.05C2834.05 1571.2 2821.59 1566.27 2805.75 1566.27C2794.83 1566.27 2785.08 1568.64 2776.48 1573.37C2767.98 1578.11 2761.27 1585.01 2756.34 1594.09C2751.42 1603.17 2748.95 1614.18 2748.95 1627.12ZM3025.73 1538.45V1567.43H2910.4V1538.45H3025.73ZM2944.01 1485.14H2978.2V1697.25C2978.2 1706.91 2979.61 1714.15 2982.41 1718.98C2985.3 1723.72 2988.97 1726.9 2993.42 1728.55C2997.96 1730.09 3002.74 1730.86 3007.76 1730.86C3011.53 1730.86 3014.62 1730.67 3017.03 1730.28C3019.45 1729.8 3021.38 1729.41 3022.83 1729.12L3029.78 1759.84C3027.47 1760.71 3024.23 1761.58 3020.08 1762.45C3015.92 1763.41 3010.66 1763.9 3004.28 1763.9C2994.63 1763.9 2985.16 1761.82 2975.89 1757.67C2966.71 1753.51 2959.08 1747.19 2952.99 1738.69C2947.01 1730.19 2944.01 1719.47 2944.01 1706.52V1485.14ZM3309.86 1538.45C3308.12 1523.77 3301.07 1512.38 3288.71 1504.26C3276.34 1496.15 3261.18 1492.09 3243.21 1492.09C3230.08 1492.09 3218.58 1494.22 3208.73 1498.47C3198.97 1502.72 3191.34 1508.56 3185.84 1516C3180.43 1523.43 3177.72 1531.89 3177.72 1541.35C3177.72 1549.27 3179.61 1556.08 3183.38 1561.78C3187.24 1567.38 3192.17 1572.07 3198.15 1575.84C3204.14 1579.51 3210.42 1582.55 3216.99 1584.96C3223.56 1587.28 3229.59 1589.16 3235.1 1590.61L3265.24 1598.73C3272.96 1600.76 3281.56 1603.56 3291.03 1607.13C3300.59 1610.7 3309.72 1615.58 3318.41 1621.76C3327.2 1627.85 3334.44 1635.67 3340.14 1645.24C3345.84 1654.8 3348.69 1666.53 3348.69 1680.44C3348.69 1696.48 3344.49 1710.97 3336.09 1723.91C3327.78 1736.85 3315.61 1747.14 3299.57 1754.77C3283.64 1762.4 3264.27 1766.22 3241.47 1766.22C3220.22 1766.22 3201.82 1762.79 3186.27 1755.93C3170.82 1749.07 3158.65 1739.51 3149.76 1727.24C3140.97 1714.97 3136 1700.73 3134.84 1684.5H3171.93C3172.9 1695.7 3176.66 1704.98 3183.23 1712.32C3189.9 1719.56 3198.3 1724.97 3208.44 1728.55C3218.68 1732.02 3229.69 1733.76 3241.47 1733.76C3255.19 1733.76 3267.51 1731.54 3278.42 1727.1C3289.34 1722.56 3297.98 1716.28 3304.36 1708.26C3310.73 1700.15 3313.92 1690.68 3313.92 1679.86C3313.92 1670.01 3311.17 1661.99 3305.66 1655.81C3300.15 1649.63 3292.91 1644.61 3283.93 1640.74C3274.94 1636.88 3265.24 1633.5 3254.8 1630.6L3218.29 1620.17C3195.11 1613.51 3176.76 1603.99 3163.24 1591.63C3149.71 1579.26 3142.95 1563.09 3142.95 1543.09C3142.95 1526.48 3147.44 1511.99 3156.43 1499.62C3165.51 1487.16 3177.68 1477.51 3192.94 1470.65C3208.3 1463.69 3225.44 1460.22 3244.37 1460.22C3263.5 1460.22 3280.5 1463.64 3295.37 1470.5C3310.25 1477.26 3322.03 1486.54 3330.72 1498.32C3339.51 1510.11 3344.15 1523.48 3344.63 1538.45H3309.86ZM3471.96 1765.64C3450.52 1765.64 3432.02 1760.9 3416.47 1751.44C3401.01 1741.88 3389.08 1728.55 3380.68 1711.45C3372.37 1694.26 3368.22 1674.26 3368.22 1651.47C3368.22 1628.67 3372.37 1608.58 3380.68 1591.19C3389.08 1573.71 3400.77 1560.09 3415.74 1550.34C3430.81 1540.48 3448.39 1535.56 3468.48 1535.56C3480.07 1535.56 3491.52 1537.49 3502.82 1541.35C3514.12 1545.22 3524.41 1551.49 3533.68 1560.19C3542.95 1568.78 3550.34 1580.18 3555.85 1594.38C3561.35 1608.58 3564.11 1626.06 3564.11 1646.83V1661.32H3392.56V1631.76H3529.33C3529.33 1619.2 3526.82 1608 3521.8 1598.15C3516.87 1588.3 3509.82 1580.52 3500.65 1574.82C3491.57 1569.12 3480.84 1566.27 3468.48 1566.27C3454.86 1566.27 3443.08 1569.65 3433.13 1576.41C3423.28 1583.08 3415.69 1591.77 3410.38 1602.49C3405.07 1613.22 3402.41 1624.71 3402.41 1636.98V1656.68C3402.41 1673.49 3405.31 1687.74 3411.11 1699.42C3417 1711.01 3425.16 1719.85 3435.59 1725.94C3446.02 1731.93 3458.15 1734.92 3471.96 1734.92C3480.94 1734.92 3489.06 1733.66 3496.3 1731.15C3503.64 1728.55 3509.97 1724.68 3515.28 1719.56C3520.59 1714.35 3524.7 1707.87 3527.59 1700.15L3560.63 1709.42C3557.15 1720.62 3551.31 1730.48 3543.1 1738.98C3534.89 1747.38 3524.75 1753.95 3512.67 1758.68C3500.6 1763.32 3487.03 1765.64 3471.96 1765.64ZM3625.83 1464.27V1761H3591.64V1464.27H3625.83ZM3698.17 1464.27V1761H3663.98V1464.27H3698.17ZM3954.09 1617.85V1649.73H3824.27V1617.85H3954.09ZM4130.47 1761L4062.66 1538.45H4098.59L4146.69 1708.84H4149.01L4196.53 1538.45H4233.05L4279.99 1708.26H4282.31L4330.41 1538.45H4366.34L4298.53 1761H4264.92L4216.24 1590.03H4212.76L4164.08 1761H4130.47ZM4472.8 1765.64C4451.36 1765.64 4432.86 1760.9 4417.31 1751.44C4401.86 1741.88 4389.93 1728.55 4381.52 1711.45C4373.22 1694.26 4369.06 1674.26 4369.06 1651.47C4369.06 1628.67 4373.22 1608.58 4381.52 1591.19C4389.93 1573.71 4401.61 1560.09 4416.59 1550.34C4431.65 1540.48 4449.23 1535.56 4469.32 1535.56C4480.92 1535.56 4492.36 1537.49 4503.66 1541.35C4514.96 1545.22 4525.25 1551.49 4534.52 1560.19C4543.8 1568.78 4551.19 1580.18 4556.69 1594.38C4562.2 1608.58 4564.95 1626.06 4564.95 1646.83V1661.32H4393.4V1631.76H4530.18C4530.18 1619.2 4527.67 1608 4522.64 1598.15C4517.72 1588.3 4510.67 1580.52 4501.49 1574.82C4492.41 1569.12 4481.69 1566.27 4469.32 1566.27C4455.71 1566.27 4443.92 1569.65 4433.97 1576.41C4424.12 1583.08 4416.54 1591.77 4411.23 1602.49C4405.91 1613.22 4403.26 1624.71 4403.26 1636.98V1656.68C4403.26 1673.49 4406.15 1687.74 4411.95 1699.42C4417.84 1711.01 4426 1719.85 4436.44 1725.94C4446.87 1731.93 4458.99 1734.92 4472.8 1734.92C4481.78 1734.92 4489.9 1733.66 4497.14 1731.15C4504.48 1728.55 4510.81 1724.68 4516.12 1719.56C4521.44 1714.35 4525.54 1707.87 4528.44 1700.15L4561.47 1709.42C4557.99 1720.62 4552.15 1730.48 4543.94 1738.98C4535.73 1747.38 4525.59 1753.95 4513.51 1758.68C4501.44 1763.32 4487.87 1765.64 4472.8 1765.64ZM4766.79 1765.64C4748.24 1765.64 4731.87 1760.95 4717.67 1751.58C4703.47 1742.12 4692.36 1728.79 4684.35 1711.59C4676.33 1694.3 4672.32 1673.88 4672.32 1650.31C4672.32 1626.93 4676.33 1606.65 4684.35 1589.45C4692.36 1572.26 4703.52 1558.98 4717.82 1549.61C4732.11 1540.24 4748.63 1535.56 4767.37 1535.56C4781.86 1535.56 4793.3 1537.97 4801.71 1542.8C4810.21 1547.53 4816.68 1552.94 4821.12 1559.03C4825.66 1565.02 4829.19 1569.94 4831.7 1573.81H4834.59V1464.27H4868.79V1761H4835.75V1726.81H4831.7C4829.19 1730.86 4825.61 1735.98 4820.98 1742.16C4816.34 1748.25 4809.72 1753.71 4801.13 1758.54C4792.53 1763.27 4781.08 1765.64 4766.79 1765.64ZM4771.42 1734.92C4785.14 1734.92 4796.73 1731.35 4806.2 1724.2C4815.66 1716.95 4822.86 1706.96 4827.78 1694.21C4832.71 1681.36 4835.17 1666.53 4835.17 1649.73C4835.17 1633.11 4832.76 1618.58 4827.93 1606.12C4823.1 1593.56 4815.95 1583.8 4806.49 1576.85C4797.02 1569.8 4785.33 1566.27 4771.42 1566.27C4756.94 1566.27 4744.86 1569.99 4735.2 1577.43C4725.64 1584.77 4718.44 1594.77 4713.61 1607.42C4708.88 1619.98 4706.52 1634.08 4706.52 1649.73C4706.52 1665.57 4708.93 1679.96 4713.76 1692.9C4718.69 1705.75 4725.93 1715.99 4735.49 1723.62C4745.15 1731.15 4757.13 1734.92 4771.42 1734.92ZM5002.09 1765.64C4982 1765.64 4964.37 1760.86 4949.21 1751.29C4934.14 1741.73 4922.35 1728.35 4913.85 1711.16C4905.45 1693.97 4901.25 1673.87 4901.25 1650.89C4901.25 1627.7 4905.45 1607.47 4913.85 1590.18C4922.35 1572.89 4934.14 1559.46 4949.21 1549.9C4964.37 1540.34 4982 1535.56 5002.09 1535.56C5022.18 1535.56 5039.76 1540.34 5054.83 1549.9C5069.99 1559.46 5081.78 1572.89 5090.18 1590.18C5098.68 1607.47 5102.93 1627.7 5102.93 1650.89C5102.93 1673.87 5098.68 1693.97 5090.18 1711.16C5081.78 1728.35 5069.99 1741.73 5054.83 1751.29C5039.76 1760.86 5022.18 1765.64 5002.09 1765.64ZM5002.09 1734.92C5017.35 1734.92 5029.91 1731.01 5039.76 1723.18C5049.61 1715.36 5056.9 1705.07 5061.64 1692.32C5066.37 1679.57 5068.74 1665.76 5068.74 1650.89C5068.74 1636.01 5066.37 1622.15 5061.64 1609.3C5056.9 1596.46 5049.61 1586.07 5039.76 1578.15C5029.91 1570.23 5017.35 1566.27 5002.09 1566.27C4986.83 1566.27 4974.27 1570.23 4964.42 1578.15C4954.57 1586.07 4947.27 1596.46 4942.54 1609.3C4937.81 1622.15 4935.44 1636.01 4935.44 1650.89C4935.44 1665.76 4937.81 1679.57 4942.54 1692.32C4947.27 1705.07 4954.57 1715.36 4964.42 1723.18C4974.27 1731.01 4986.83 1734.92 5002.09 1734.92ZM5220.92 1761V1538.45H5255.11V1761H5220.92ZM5238.3 1501.36C5231.64 1501.36 5225.89 1499.09 5221.06 1494.55C5216.33 1490.01 5213.96 1484.56 5213.96 1478.18C5213.96 1471.81 5216.33 1466.35 5221.06 1461.81C5225.89 1457.27 5231.64 1455 5238.3 1455C5244.97 1455 5250.67 1457.27 5255.4 1461.81C5260.23 1466.35 5262.64 1471.81 5262.64 1478.18C5262.64 1484.56 5260.23 1490.01 5255.4 1494.55C5250.67 1499.09 5244.97 1501.36 5238.3 1501.36ZM5390.04 1538.45V1567.43H5274.71V1538.45H5390.04ZM5308.32 1485.14H5342.52V1697.25C5342.52 1706.91 5343.92 1714.15 5346.72 1718.98C5349.62 1723.72 5353.29 1726.9 5357.73 1728.55C5362.27 1730.09 5367.05 1730.86 5372.07 1730.86C5375.84 1730.86 5378.93 1730.67 5381.35 1730.28C5383.76 1729.8 5385.69 1729.41 5387.14 1729.12L5394.1 1759.84C5391.78 1760.71 5388.54 1761.58 5384.39 1762.45C5380.24 1763.41 5374.97 1763.9 5368.6 1763.9C5358.94 1763.9 5349.47 1761.82 5340.2 1757.67C5331.02 1753.51 5323.39 1747.19 5317.31 1738.69C5311.32 1730.19 5308.32 1719.47 5308.32 1706.52V1485.14ZM5572.75 1766.22C5558.65 1766.22 5545.85 1763.56 5534.36 1758.25C5522.86 1752.84 5513.74 1745.06 5506.97 1734.92C5500.21 1724.68 5496.83 1712.32 5496.83 1697.83C5496.83 1685.08 5499.34 1674.74 5504.37 1666.82C5509.39 1658.81 5516.1 1652.53 5524.51 1647.99C5532.91 1643.45 5542.18 1640.07 5552.32 1637.85C5562.56 1635.53 5572.85 1633.69 5583.18 1632.34C5596.71 1630.6 5607.67 1629.3 5616.07 1628.43C5624.57 1627.46 5630.76 1625.87 5634.62 1623.65C5638.58 1621.43 5640.56 1617.56 5640.56 1612.06V1610.9C5640.56 1596.6 5636.65 1585.49 5628.82 1577.57C5621.1 1569.65 5609.36 1565.69 5593.62 1565.69C5577.29 1565.69 5564.49 1569.27 5555.22 1576.41C5545.95 1583.56 5539.43 1591.19 5535.66 1599.31L5503.21 1587.72C5509 1574.19 5516.73 1563.66 5526.39 1556.13C5536.14 1548.5 5546.77 1543.19 5558.26 1540.19C5569.86 1537.1 5581.25 1535.56 5592.46 1535.56C5599.61 1535.56 5607.82 1536.43 5617.09 1538.16C5626.46 1539.81 5635.49 1543.24 5644.18 1548.45C5652.97 1553.67 5660.26 1561.54 5666.06 1572.07C5671.86 1582.6 5674.75 1596.7 5674.75 1614.38V1761H5640.56V1730.86H5638.82C5636.5 1735.69 5632.64 1740.86 5627.23 1746.37C5621.82 1751.87 5614.63 1756.56 5605.64 1760.42C5596.66 1764.28 5585.7 1766.22 5572.75 1766.22ZM5577.97 1735.5C5591.49 1735.5 5602.89 1732.84 5612.16 1727.53C5621.53 1722.22 5628.58 1715.36 5633.32 1706.96C5638.14 1698.55 5640.56 1689.72 5640.56 1680.44V1649.15C5639.11 1650.89 5635.92 1652.48 5631 1653.93C5626.17 1655.28 5620.57 1656.49 5614.19 1657.55C5607.91 1658.52 5601.78 1659.39 5595.79 1660.16C5589.9 1660.84 5585.12 1661.41 5581.45 1661.9C5572.56 1663.06 5564.25 1664.94 5556.53 1667.55C5548.89 1670.06 5542.71 1673.87 5537.98 1678.99C5533.34 1684.02 5531.03 1690.87 5531.03 1699.57C5531.03 1711.45 5535.42 1720.43 5544.21 1726.52C5553.1 1732.51 5564.35 1735.5 5577.97 1735.5ZM5746.88 1464.27V1761H5712.68V1464.27H5746.88ZM5819.22 1464.27V1761H5785.02V1464.27H5819.22Z" fill="#505050"/>
</svg>
